<svg xmlns="http://www.w3.org/2000/svg" xmlns:xlink="http://www.w3.org/1999/xlink" width="223" zoomAndPan="magnify" viewBox="0 0 167.25 66.749998" height="89" preserveAspectRatio="xMidYMid meet" version="1.0"><defs><g/><clipPath id="5e518f81eb"><path d="M 0 0.0234375 L 166.503906 0.0234375 L 166.503906 66.476562 L 0 66.476562 Z M 0 0.0234375 " clip-rule="nonzero"/></clipPath><clipPath id="f67e09ef5e"><path d="M 0 27 L 51.519531 27 L 51.519531 47.753906 L 0 47.753906 Z M 0 27 " clip-rule="nonzero"/></clipPath><clipPath id="63269c65d5"><path d="M 27 10.417969 L 51 10.417969 L 51 25 L 27 25 Z M 27 10.417969 " clip-rule="nonzero"/></clipPath></defs><g clip-path="url(#5e518f81eb)"><path fill="#ffffff" d="M 0 0.0234375 L 166.503906 0.0234375 L 166.503906 66.476562 L 0 66.476562 Z M 0 0.0234375 " fill-opacity="1" fill-rule="nonzero"/></g><g clip-path="url(#f67e09ef5e)"><path fill="#d41408" d="M 48.742188 32.953125 C 48.472656 32.734375 48.128906 32.644531 47.792969 32.699219 C 47.46875 32.753906 47.199219 32.933594 47.027344 33.210938 C 46.890625 33.429688 46.808594 33.691406 46.78125 33.992188 L 28.707031 33.992188 L 32.230469 32.289062 C 32.320312 32.25 32.390625 32.175781 32.429688 32.085938 L 33.265625 30.160156 C 33.421875 29.832031 33.511719 29.53125 33.546875 29.226562 C 33.589844 28.824219 33.472656 28.429688 33.210938 28.117188 C 32.957031 27.808594 32.59375 27.613281 32.191406 27.570312 C 30.074219 27.351562 27.886719 27.242188 25.691406 27.242188 C 11.285156 27.242188 0 31.773438 0 37.558594 C 0 43.34375 11.285156 47.875 25.691406 47.875 C 40.09375 47.875 51.378906 43.34375 51.378906 37.558594 C 51.378906 35.925781 50.492188 34.375 48.742188 32.953125 Z M 47.035156 34.804688 C 47.921875 35.574219 48.375 36.363281 48.375 37.15625 C 48.375 41.023438 37.984375 44.289062 25.691406 44.289062 C 13.394531 44.289062 3.003906 41.023438 3.003906 37.15625 C 3.003906 33.285156 13.394531 30.019531 25.691406 30.019531 C 27.304688 30.019531 28.90625 30.074219 30.472656 30.183594 L 23.054688 34.035156 C 22.886719 34.125 22.800781 34.3125 22.847656 34.496094 C 22.890625 34.679688 23.054688 34.804688 23.242188 34.804688 L 26.914062 34.804688 C 26.917969 34.804688 26.921875 34.804688 26.929688 34.804688 Z M 31.742188 31.621094 L 26.828125 33.992188 L 24.914062 33.992188 L 32 30.308594 C 32.101562 30.320312 32.199219 30.328125 32.300781 30.339844 Z M 31.742188 31.621094 " fill-opacity="1" fill-rule="nonzero"/></g><path fill="#d41408" d="M 31.511719 40.40625 C 32.921875 40.40625 34.027344 39.601562 34.027344 38.578125 C 34.027344 37.550781 32.921875 36.746094 31.511719 36.746094 C 30.101562 36.746094 28.996094 37.550781 28.996094 38.578125 C 28.996094 39.601562 30.101562 40.40625 31.511719 40.40625 Z M 31.511719 40.40625 " fill-opacity="1" fill-rule="nonzero"/><path fill="#d41408" d="M 23.160156 38.082031 C 23.160156 38.082031 23.160156 38.082031 23.15625 38.078125 C 22.238281 37.664062 21.0625 38.269531 20.539062 39.429688 C 20.011719 40.585938 20.328125 41.867188 21.25 42.289062 C 21.453125 42.378906 21.667969 42.425781 21.882812 42.425781 C 22.65625 42.425781 23.453125 41.863281 23.867188 40.941406 C 24.113281 40.398438 24.1875 39.8125 24.074219 39.289062 C 23.949219 38.730469 23.617188 38.289062 23.160156 38.082031 Z M 23.160156 38.082031 " fill-opacity="1" fill-rule="nonzero"/><path fill="#d41408" d="M 13.375 35.945312 C 14.039062 35.679688 14.558594 35.199219 14.804688 34.628906 C 14.984375 34.214844 15 33.777344 14.847656 33.394531 C 14.65625 32.921875 14.246094 32.574219 13.683594 32.425781 C 13.167969 32.285156 12.578125 32.328125 12.027344 32.546875 C 11.367188 32.804688 10.84375 33.28125 10.597656 33.851562 C 10.414062 34.265625 10.398438 34.710938 10.554688 35.09375 C 10.820312 35.769531 11.515625 36.152344 12.324219 36.152344 C 12.660156 36.152344 13.019531 36.082031 13.375 35.945312 Z M 13.375 35.945312 " fill-opacity="1" fill-rule="nonzero"/><path fill="#d41408" d="M 15.050781 38.488281 C 14.734375 37.695312 13.671875 37.371094 12.683594 37.761719 C 12.222656 37.945312 11.839844 38.253906 11.605469 38.636719 C 11.355469 39.046875 11.300781 39.515625 11.457031 39.914062 C 11.585938 40.242188 11.851562 40.503906 12.203125 40.660156 C 12.433594 40.757812 12.691406 40.808594 12.960938 40.808594 C 13.246094 40.808594 13.539062 40.753906 13.824219 40.640625 C 14.832031 40.238281 15.371094 39.292969 15.050781 38.488281 Z M 15.050781 38.488281 " fill-opacity="1" fill-rule="nonzero"/><path fill="#d41408" d="M 42.667969 39.527344 C 43.960938 39.527344 44.972656 38.855469 44.972656 38 C 44.972656 37.140625 43.960938 36.46875 42.667969 36.46875 C 41.378906 36.46875 40.371094 37.140625 40.371094 38 C 40.371094 38.855469 41.378906 39.527344 42.667969 39.527344 Z M 42.667969 39.527344 " fill-opacity="1" fill-rule="nonzero"/><path fill="#d41408" d="M 23.507812 32.96875 C 23.539062 32.96875 23.570312 32.96875 23.601562 32.964844 C 24.148438 32.945312 24.652344 32.734375 24.953125 32.410156 C 25.15625 32.191406 25.257812 31.929688 25.246094 31.664062 C 25.234375 31.394531 25.113281 31.144531 24.894531 30.941406 C 24.570312 30.640625 24.054688 30.472656 23.503906 30.496094 C 22.957031 30.519531 22.449219 30.726562 22.152344 31.050781 C 21.949219 31.273438 21.847656 31.53125 21.863281 31.792969 C 21.871094 32.066406 21.992188 32.316406 22.210938 32.519531 C 22.515625 32.804688 22.996094 32.96875 23.507812 32.96875 Z M 23.507812 32.96875 " fill-opacity="1" fill-rule="nonzero"/><path fill="#d41408" d="M 6.703125 36.0625 C 6.167969 35.933594 5.625 35.992188 5.246094 36.226562 C 4.992188 36.382812 4.824219 36.601562 4.761719 36.863281 C 4.601562 37.539062 5.195312 38.242188 6.117188 38.464844 C 6.300781 38.507812 6.484375 38.53125 6.664062 38.53125 C 7.003906 38.53125 7.320312 38.453125 7.570312 38.300781 C 7.824219 38.144531 7.992188 37.925781 8.054688 37.664062 C 8.117188 37.402344 8.070312 37.128906 7.914062 36.871094 C 7.6875 36.492188 7.230469 36.191406 6.703125 36.0625 Z M 6.703125 36.0625 " fill-opacity="1" fill-rule="nonzero"/><path fill="#d41408" d="M 8.570312 33.269531 C 7.8125 33.269531 7.191406 33.832031 7.191406 34.523438 C 7.191406 35.21875 7.8125 35.785156 8.570312 35.785156 C 9.332031 35.785156 9.949219 35.21875 9.949219 34.523438 C 9.949219 33.832031 9.332031 33.269531 8.570312 33.269531 Z M 8.570312 33.269531 " fill-opacity="1" fill-rule="nonzero"/><path fill="#d41408" d="M 19.25 32.660156 C 18.488281 32.660156 17.867188 33.222656 17.867188 33.917969 C 17.867188 34.613281 18.488281 35.175781 19.25 35.175781 C 20.011719 35.175781 20.628906 34.613281 20.628906 33.917969 C 20.628906 33.222656 20.011719 32.660156 19.25 32.660156 Z M 19.25 32.660156 " fill-opacity="1" fill-rule="nonzero"/><path fill="#d41408" d="M 17.765625 39.976562 C 17.007812 39.976562 16.386719 40.539062 16.386719 41.234375 C 16.386719 41.925781 17.007812 42.492188 17.765625 42.492188 C 18.527344 42.492188 19.144531 41.925781 19.144531 41.234375 C 19.144531 40.539062 18.527344 39.976562 17.765625 39.976562 Z M 17.765625 39.976562 " fill-opacity="1" fill-rule="nonzero"/><path fill="#d41408" d="M 37.742188 41.066406 C 38.503906 41.066406 39.121094 40.5 39.121094 39.804688 C 39.121094 39.113281 38.503906 38.550781 37.742188 38.550781 C 36.984375 38.550781 36.363281 39.113281 36.363281 39.804688 C 36.363281 40.5 36.984375 41.066406 37.742188 41.066406 Z M 37.742188 41.066406 " fill-opacity="1" fill-rule="nonzero"/><g clip-path="url(#63269c65d5)"><path fill="#d41408" d="M 27.148438 23.074219 C 27.152344 23.089844 27.152344 23.109375 27.15625 23.128906 C 27.15625 23.136719 27.15625 23.144531 27.160156 23.152344 C 27.167969 23.179688 27.179688 23.199219 27.191406 23.222656 C 27.199219 23.234375 27.203125 23.25 27.210938 23.261719 C 27.238281 23.300781 27.273438 23.335938 27.308594 23.363281 C 27.316406 23.371094 27.328125 23.371094 27.335938 23.378906 C 27.371094 23.398438 27.40625 23.414062 27.445312 23.425781 C 27.449219 23.425781 27.457031 23.429688 27.460938 23.433594 C 29.273438 23.824219 31.078125 24.019531 32.882812 24.019531 C 38.207031 24.019531 43.480469 22.308594 48.621094 18.910156 C 49.503906 18.835938 50.203125 18.097656 50.203125 17.195312 C 50.203125 17.136719 50.203125 17.078125 50.195312 17.019531 C 50.035156 13.167969 44.402344 10.835938 38.910156 10.523438 C 38.621094 10.507812 38.34375 10.566406 38.105469 10.707031 C 37.695312 10.945312 37.414062 11.308594 37.296875 11.761719 C 37.167969 12.25 37.25 12.808594 37.515625 13.355469 C 36.753906 14.621094 35.808594 15.851562 34.699219 17.015625 C 33.96875 17.789062 33.125 18.570312 32.191406 19.335938 C 30.800781 20.476562 29.167969 21.605469 27.339844 22.683594 C 27.335938 22.683594 27.335938 22.6875 27.332031 22.691406 C 27.324219 22.695312 27.316406 22.703125 27.308594 22.710938 C 27.277344 22.734375 27.25 22.757812 27.226562 22.789062 C 27.214844 22.800781 27.210938 22.816406 27.203125 22.832031 C 27.183594 22.859375 27.171875 22.890625 27.160156 22.921875 C 27.160156 22.933594 27.152344 22.9375 27.148438 22.949219 C 27.148438 22.957031 27.152344 22.964844 27.148438 22.976562 C 27.144531 23.007812 27.144531 23.039062 27.148438 23.074219 Z M 31.058594 23.125 C 36.933594 22.398438 42.140625 20.652344 46.878906 17.835938 C 47.007812 18.164062 47.238281 18.445312 47.53125 18.636719 C 42.144531 22.039062 36.621094 23.542969 31.058594 23.125 Z M 48.480469 18.109375 C 47.976562 18.109375 47.566406 17.699219 47.566406 17.195312 C 47.566406 16.691406 47.976562 16.285156 48.480469 16.285156 C 48.949219 16.285156 49.335938 16.632812 49.382812 17.097656 C 49.382812 17.105469 49.386719 17.113281 49.386719 17.121094 C 49.386719 17.125 49.386719 17.128906 49.386719 17.132812 C 49.390625 17.152344 49.390625 17.175781 49.390625 17.195312 C 49.390625 17.699219 48.980469 18.109375 48.480469 18.109375 Z M 32.515625 20.121094 C 32.785156 20.226562 33.25 20.367188 33.769531 20.367188 C 34.269531 20.367188 34.820312 20.230469 35.277344 19.800781 C 36.125 19.007812 35.863281 17.964844 35.507812 17.335938 C 36.554688 16.207031 37.460938 15.019531 38.199219 13.800781 C 42.203125 14.097656 44.875 15.144531 46.542969 17.085938 C 41.414062 20.15625 35.714844 21.9375 29.179688 22.507812 C 30.398438 21.730469 31.511719 20.929688 32.515625 20.121094 Z M 32.515625 20.121094 " fill-opacity="1" fill-rule="nonzero"/></g><path fill="#d41408" d="M 39.371094 17.179688 C 38.882812 17.460938 38.523438 17.894531 38.410156 18.332031 C 38.332031 18.625 38.363281 18.902344 38.5 19.132812 C 38.632812 19.371094 38.859375 19.539062 39.152344 19.617188 C 39.277344 19.652344 39.40625 19.667969 39.542969 19.667969 C 39.894531 19.667969 40.277344 19.558594 40.625 19.359375 C 41.464844 18.875 41.851562 18.015625 41.5 17.398438 C 41.148438 16.796875 40.210938 16.699219 39.371094 17.179688 Z M 39.371094 17.179688 " fill-opacity="1" fill-rule="nonzero"/><path fill="#d41408" d="M 39.878906 16.222656 C 40.066406 15.953125 40.160156 15.636719 40.132812 15.328125 C 40.105469 15 39.945312 14.707031 39.6875 14.527344 C 39.464844 14.371094 39.183594 14.3125 38.898438 14.363281 C 38.558594 14.425781 38.246094 14.636719 38.035156 14.941406 C 37.632812 15.527344 37.714844 16.269531 38.230469 16.632812 C 38.40625 16.753906 38.605469 16.808594 38.8125 16.808594 C 39.207031 16.808594 39.617188 16.601562 39.878906 16.222656 Z M 39.878906 16.222656 " fill-opacity="1" fill-rule="nonzero"/><g fill="#000000" fill-opacity="1"><g transform="translate(58.235647, 38.45209)"><g><path d="M 1.984375 2.328125 C 1.890625 2.328125 1.796875 2.320312 1.703125 2.3125 C 1.617188 2.300781 1.519531 2.285156 1.40625 2.265625 C 1.21875 2.210938 1.054688 2.128906 0.921875 2.015625 C 0.785156 1.898438 0.640625 1.785156 0.484375 1.671875 C 0.429688 1.671875 0.363281 1.550781 0.28125 1.3125 C 0.207031 1.070312 0.132812 0.820312 0.0625 0.5625 C 0 0.300781 -0.03125 0.148438 -0.03125 0.109375 C -0.03125 -0.148438 -0.0351562 -0.40625 -0.046875 -0.65625 C -0.0546875 -0.90625 -0.0625 -1.15625 -0.0625 -1.40625 C -0.0625 -1.519531 -0.0625 -1.644531 -0.0625 -1.78125 C -0.0625 -1.914062 -0.0507812 -2.039062 -0.03125 -2.15625 C 0.0078125 -2.382812 0.046875 -2.601562 0.078125 -2.8125 C 0.117188 -3.03125 0.1875 -3.242188 0.28125 -3.453125 C 0.382812 -3.753906 0.5 -4.035156 0.625 -4.296875 C 0.757812 -4.554688 0.882812 -4.820312 1 -5.09375 C 1.039062 -5.207031 1.128906 -5.273438 1.265625 -5.296875 C 1.378906 -5.347656 1.488281 -5.378906 1.59375 -5.390625 C 1.695312 -5.398438 1.804688 -5.414062 1.921875 -5.4375 C 2.003906 -5.375 2.035156 -5.300781 2.015625 -5.21875 C 1.992188 -5.132812 2.039062 -5.070312 2.15625 -5.03125 C 2.226562 -5.007812 2.289062 -4.992188 2.34375 -4.984375 C 2.394531 -4.972656 2.4375 -4.96875 2.46875 -4.96875 C 2.53125 -4.96875 2.570312 -4.976562 2.59375 -5 C 2.625 -5 2.671875 -4.972656 2.734375 -4.921875 C 2.804688 -4.878906 2.851562 -4.835938 2.875 -4.796875 C 2.894531 -4.765625 2.90625 -4.726562 2.90625 -4.6875 C 2.90625 -4.59375 2.894531 -4.535156 2.875 -4.515625 C 2.757812 -4.285156 2.664062 -4.046875 2.59375 -3.796875 C 2.53125 -3.546875 2.472656 -3.296875 2.421875 -3.046875 C 2.421875 -2.929688 2.410156 -2.816406 2.390625 -2.703125 C 2.367188 -2.585938 2.359375 -2.472656 2.359375 -2.359375 C 2.398438 -2.015625 2.4375 -1.664062 2.46875 -1.3125 C 2.507812 -0.957031 2.585938 -0.613281 2.703125 -0.28125 C 2.773438 -0.09375 2.859375 0.0625 2.953125 0.1875 C 3.054688 0.3125 3.164062 0.429688 3.28125 0.546875 C 3.394531 0.429688 3.5 0.320312 3.59375 0.21875 C 3.6875 0.113281 3.773438 0.00390625 3.859375 -0.109375 C 3.972656 -0.222656 4.03125 -0.320312 4.03125 -0.40625 C 4.03125 -0.65625 4.066406 -0.863281 4.140625 -1.03125 C 4.210938 -1.207031 4.289062 -1.410156 4.375 -1.640625 C 4.425781 -1.847656 4.484375 -2.007812 4.546875 -2.125 C 4.773438 -2.695312 4.914062 -3.289062 4.96875 -3.90625 C 4.96875 -4.3125 4.988281 -4.71875 5.03125 -5.125 C 5.070312 -5.539062 5.109375 -5.953125 5.140625 -6.359375 C 5.140625 -6.472656 5.144531 -6.585938 5.15625 -6.703125 C 5.164062 -6.816406 5.171875 -6.929688 5.171875 -7.046875 C 5.171875 -7.597656 5.140625 -8.144531 5.078125 -8.6875 C 5.023438 -9.238281 4.953125 -9.773438 4.859375 -10.296875 C 4.816406 -10.660156 4.753906 -11.019531 4.671875 -11.375 C 4.585938 -11.726562 4.46875 -12.078125 4.3125 -12.421875 L 3.734375 -13.484375 C 3.410156 -14.140625 3.179688 -14.753906 3.046875 -15.328125 C 2.972656 -15.535156 2.9375 -15.742188 2.9375 -15.953125 C 2.9375 -16.203125 2.984375 -16.40625 3.078125 -16.5625 C 3.210938 -16.832031 3.359375 -17.203125 3.515625 -17.671875 C 3.679688 -18.140625 3.84375 -18.453125 4 -18.609375 C 4.476562 -18.929688 4.957031 -19.179688 5.4375 -19.359375 C 5.914062 -19.546875 6.429688 -19.640625 6.984375 -19.640625 C 7.273438 -19.640625 7.5625 -19.582031 7.84375 -19.46875 C 7.863281 -19.46875 7.882812 -19.457031 7.90625 -19.4375 C 7.925781 -19.414062 7.945312 -19.40625 7.96875 -19.40625 C 8.289062 -19.40625 8.523438 -19.328125 8.671875 -19.171875 C 8.816406 -19.023438 8.984375 -18.863281 9.171875 -18.6875 C 9.421875 -18.4375 9.546875 -18.140625 9.546875 -17.796875 C 9.546875 -17.742188 9.539062 -17.695312 9.53125 -17.65625 C 9.519531 -17.613281 9.515625 -17.566406 9.515625 -17.515625 C 9.492188 -17.285156 9.453125 -17.0625 9.390625 -16.84375 C 9.335938 -16.632812 9.296875 -16.414062 9.265625 -16.1875 C 9.179688 -15.707031 9.023438 -15.273438 8.796875 -14.890625 C 8.660156 -14.640625 8.441406 -14.515625 8.140625 -14.515625 L 8 -14.546875 C 7.800781 -14.660156 7.703125 -14.863281 7.703125 -15.15625 L 7.703125 -15.296875 C 7.835938 -15.890625 7.9375 -16.492188 8 -17.109375 C 8 -17.453125 7.863281 -17.765625 7.59375 -18.046875 C 7.320312 -18.335938 7.035156 -18.484375 6.734375 -18.484375 C 6.484375 -18.484375 6.3125 -18.410156 6.21875 -18.265625 C 6.132812 -18.128906 6.046875 -17.960938 5.953125 -17.765625 C 5.660156 -17.140625 5.515625 -16.507812 5.515625 -15.875 C 5.515625 -15.46875 5.554688 -15.125 5.640625 -14.84375 C 5.691406 -14.664062 5.753906 -14.507812 5.828125 -14.375 C 5.910156 -14.238281 6 -14.085938 6.09375 -13.921875 C 6.34375 -13.472656 6.582031 -13.023438 6.8125 -12.578125 C 7.039062 -12.128906 7.28125 -11.691406 7.53125 -11.265625 C 7.78125 -10.523438 7.941406 -9.691406 8.015625 -8.765625 C 8.097656 -7.847656 8.140625 -6.96875 8.140625 -6.125 C 8.140625 -5.394531 8.125 -4.75 8.09375 -4.1875 C 8.0625 -3.632812 8.019531 -3.253906 7.96875 -3.046875 C 7.945312 -2.429688 7.765625 -1.789062 7.421875 -1.125 C 7.078125 -0.46875 6.71875 0.101562 6.34375 0.59375 C 5.96875 1.082031 5.703125 1.398438 5.546875 1.546875 C 5.378906 1.660156 5.210938 1.753906 5.046875 1.828125 C 4.878906 1.910156 4.679688 1.960938 4.453125 1.984375 C 4.398438 2.023438 4.191406 2.070312 3.828125 2.125 C 3.460938 2.1875 3.085938 2.234375 2.703125 2.265625 C 2.316406 2.304688 2.078125 2.328125 1.984375 2.328125 Z M 1.984375 2.328125 "/></g></g></g><g fill="#000000" fill-opacity="1"><g transform="translate(67.231606, 38.45209)"><g><path d="M 8.421875 2.265625 C 8.367188 2.265625 8.273438 2.222656 8.140625 2.140625 C 8.003906 2.054688 7.90625 2.015625 7.84375 2.015625 C 7.8125 2.015625 7.738281 2.023438 7.625 2.046875 C 7.507812 2.078125 7.410156 2.09375 7.328125 2.09375 C 6.679688 2.09375 6.257812 1.710938 6.0625 0.953125 C 6.03125 0.816406 6.003906 0.679688 5.984375 0.546875 C 5.960938 0.410156 5.953125 0.273438 5.953125 0.140625 L 6.125 -3.90625 C 6.144531 -4.351562 6.1875 -4.796875 6.25 -5.234375 C 6.320312 -5.671875 6.394531 -6.113281 6.46875 -6.5625 C 6.488281 -6.84375 6.519531 -7.128906 6.5625 -7.421875 C 6.613281 -7.722656 6.671875 -8.03125 6.734375 -8.34375 L 4.375 -8.34375 C 4.21875 -8.34375 4.082031 -8.253906 3.96875 -8.078125 C 3.875 -7.890625 3.773438 -7.695312 3.671875 -7.5 C 3.578125 -7.3125 3.503906 -7.128906 3.453125 -6.953125 C 3.335938 -6.691406 3.222656 -6.4375 3.109375 -6.1875 C 2.992188 -5.9375 2.925781 -5.675781 2.90625 -5.40625 C 2.882812 -5.289062 2.835938 -5.203125 2.765625 -5.140625 C 2.585938 -4.929688 2.421875 -4.609375 2.265625 -4.171875 C 2.117188 -3.742188 1.976562 -3.304688 1.84375 -2.859375 C 1.707031 -2.410156 1.582031 -2.070312 1.46875 -1.84375 C 1.351562 -1.613281 1.257812 -1.378906 1.1875 -1.140625 C 1.125 -0.898438 1.035156 -0.65625 0.921875 -0.40625 C 0.765625 -0.0390625 0.523438 0.140625 0.203125 0.140625 C 0.109375 0.140625 -0.0351562 0.117188 -0.234375 0.078125 C -0.441406 0.046875 -0.601562 0.0078125 -0.71875 -0.03125 C -0.8125 -0.125 -0.859375 -0.25 -0.859375 -0.40625 C -0.835938 -0.59375 -0.800781 -0.75 -0.75 -0.875 C -0.707031 -1 -0.648438 -1.117188 -0.578125 -1.234375 C -0.535156 -1.410156 -0.46875 -1.582031 -0.375 -1.75 C -0.351562 -1.863281 -0.296875 -2.066406 -0.203125 -2.359375 C -0.109375 -2.660156 -0.015625 -2.957031 0.078125 -3.25 C 0.179688 -3.550781 0.257812 -3.742188 0.3125 -3.828125 C 0.425781 -3.992188 0.507812 -4.164062 0.5625 -4.34375 C 0.625 -4.53125 0.695312 -4.710938 0.78125 -4.890625 C 0.832031 -5.023438 0.875 -5.160156 0.90625 -5.296875 C 0.9375 -5.441406 0.988281 -5.570312 1.0625 -5.6875 C 1.125 -5.789062 1.191406 -5.890625 1.265625 -5.984375 C 1.335938 -6.078125 1.40625 -6.179688 1.46875 -6.296875 L 1.578125 -6.40625 C 1.753906 -6.65625 1.914062 -6.929688 2.0625 -7.234375 C 2.21875 -7.546875 2.335938 -7.859375 2.421875 -8.171875 C 2.378906 -8.171875 2.347656 -8.175781 2.328125 -8.1875 C 2.304688 -8.207031 2.21875 -8.222656 2.0625 -8.234375 C 1.914062 -8.242188 1.613281 -8.25 1.15625 -8.25 L 0.546875 -8.25 C 0.316406 -8.25 0.0664062 -8.304688 -0.203125 -8.421875 C -0.222656 -8.421875 -0.234375 -8.453125 -0.234375 -8.515625 L -0.234375 -8.796875 C -0.234375 -8.890625 -0.191406 -8.957031 -0.109375 -9 C -0.0351562 -9.039062 0.0078125 -9.0625 0.03125 -9.0625 L 2.703125 -9.375 C 2.910156 -9.414062 3.046875 -9.519531 3.109375 -9.6875 C 3.316406 -10.03125 3.457031 -10.347656 3.53125 -10.640625 C 3.613281 -10.941406 3.722656 -11.285156 3.859375 -11.671875 L 5.375 -15.5625 L 5.578125 -16.21875 C 5.753906 -16.851562 5.976562 -17.472656 6.25 -18.078125 C 6.53125 -18.679688 6.820312 -19.28125 7.125 -19.875 C 7.28125 -20.195312 7.4375 -20.457031 7.59375 -20.65625 C 7.757812 -20.863281 7.84375 -21.117188 7.84375 -21.421875 L 8.5625 -21.421875 C 8.71875 -21.421875 8.875 -21.398438 9.03125 -21.359375 C 9.1875 -21.328125 9.335938 -21.234375 9.484375 -21.078125 C 9.523438 -21.035156 9.566406 -20.988281 9.609375 -20.9375 C 9.660156 -20.894531 9.6875 -20.835938 9.6875 -20.765625 C 10 -19.441406 10.195312 -18.46875 10.28125 -17.84375 C 10.363281 -17.21875 10.425781 -16.675781 10.46875 -16.21875 L 10.46875 -15.90625 C 10.46875 -15.726562 10.394531 -15.382812 10.25 -14.875 C 10.101562 -14.375 9.953125 -13.878906 9.796875 -13.390625 C 9.648438 -12.898438 9.578125 -12.566406 9.578125 -12.390625 L 9.484375 -9.65625 C 9.410156 -9.125 9.378906 -8.617188 9.390625 -8.140625 C 9.398438 -7.660156 9.382812 -7.179688 9.34375 -6.703125 L 9.203125 -5.84375 C 9.160156 -5.664062 9.140625 -5.503906 9.140625 -5.359375 C 9.140625 -5.210938 9.140625 -5.054688 9.140625 -4.890625 C 9.140625 -4.710938 9.140625 -4.519531 9.140625 -4.3125 C 9.140625 -4.101562 9.148438 -3.910156 9.171875 -3.734375 L 9.203125 -3.390625 C 9.203125 -3.203125 9.191406 -3.015625 9.171875 -2.828125 C 9.148438 -2.648438 9.128906 -2.472656 9.109375 -2.296875 C 9.109375 -1.992188 9.109375 -1.726562 9.109375 -1.5 C 9.109375 -1.269531 9.128906 -1.03125 9.171875 -0.78125 L 9.171875 -0.34375 C 9.171875 -0.0703125 9.171875 0.1875 9.171875 0.4375 C 9.171875 0.695312 9.179688 0.914062 9.203125 1.09375 C 9.203125 1.09375 9.164062 1.179688 9.09375 1.359375 C 9.03125 1.546875 8.9375 1.726562 8.8125 1.90625 C 8.6875 2.09375 8.554688 2.210938 8.421875 2.265625 Z M 4.921875 -9.3125 C 5.242188 -9.3125 5.550781 -9.328125 5.84375 -9.359375 C 6.144531 -9.390625 6.457031 -9.429688 6.78125 -9.484375 C 6.800781 -9.734375 6.828125 -9.957031 6.859375 -10.15625 C 6.890625 -10.363281 6.921875 -10.582031 6.953125 -10.8125 C 7.015625 -11.3125 7.128906 -11.972656 7.296875 -12.796875 C 7.472656 -13.617188 7.644531 -14.445312 7.8125 -15.28125 C 7.988281 -16.113281 8.085938 -16.769531 8.109375 -17.25 C 8.109375 -17.289062 8.113281 -17.332031 8.125 -17.375 C 8.132812 -17.425781 8.140625 -17.472656 8.140625 -17.515625 C 8.140625 -17.816406 8.082031 -18.140625 7.96875 -18.484375 L 4.453125 -9.34375 C 4.535156 -9.34375 4.617188 -9.335938 4.703125 -9.328125 C 4.785156 -9.316406 4.859375 -9.3125 4.921875 -9.3125 Z M 4.921875 -9.3125 "/></g></g></g><g fill="#000000" fill-opacity="1"><g transform="translate(77.595808, 38.45209)"><g><path d="M 2.8125 4.828125 C 2.625 4.773438 2.429688 4.734375 2.234375 4.703125 C 2.046875 4.671875 1.859375 4.628906 1.671875 4.578125 C 1.628906 4.554688 1.585938 4.515625 1.546875 4.453125 C 1.515625 4.398438 1.476562 4.351562 1.4375 4.3125 C 1.414062 4.269531 1.40625 4.234375 1.40625 4.203125 C 1.40625 4.179688 1.378906 4.148438 1.328125 4.109375 C 1.191406 3.972656 1.050781 3.851562 0.90625 3.75 C 0.757812 3.644531 0.6875 3.523438 0.6875 3.390625 C 0.6875 3.296875 0.695312 3.238281 0.71875 3.21875 C 0.789062 3.082031 0.863281 2.953125 0.9375 2.828125 C 1.019531 2.703125 1.109375 2.554688 1.203125 2.390625 C 1.128906 2.304688 1.0625 2.265625 1 2.265625 C 0.925781 2.265625 0.832031 2.332031 0.71875 2.46875 C 0.625 2.414062 0.539062 2.351562 0.46875 2.28125 C 0.40625 2.21875 0.316406 2.15625 0.203125 2.09375 L -0.0625 2.328125 C -0.113281 2.285156 -0.171875 2.25 -0.234375 2.21875 C -0.304688 2.195312 -0.375 2.164062 -0.4375 2.125 C -0.53125 2.070312 -0.585938 2.003906 -0.609375 1.921875 C -0.660156 1.785156 -0.695312 1.644531 -0.71875 1.5 C -0.738281 1.363281 -0.757812 1.238281 -0.78125 1.125 C -0.8125 1.101562 -0.828125 1.015625 -0.828125 0.859375 C -0.828125 0.722656 -0.8125 0.628906 -0.78125 0.578125 C -0.375 -1.171875 -0.0507812 -2.582031 0.1875 -3.65625 C 0.425781 -4.726562 0.613281 -5.566406 0.75 -6.171875 C 0.882812 -6.773438 0.976562 -7.238281 1.03125 -7.5625 C 1.09375 -7.882812 1.148438 -8.160156 1.203125 -8.390625 C 1.265625 -8.753906 1.328125 -9.117188 1.390625 -9.484375 C 1.460938 -9.847656 1.546875 -10.210938 1.640625 -10.578125 C 1.773438 -11.234375 1.910156 -11.878906 2.046875 -12.515625 C 2.191406 -13.160156 2.34375 -13.8125 2.5 -14.46875 C 2.5625 -14.863281 2.59375 -15.082031 2.59375 -15.125 C 2.59375 -15.195312 2.570312 -15.234375 2.53125 -15.234375 C 2.394531 -15.234375 2.210938 -15.242188 1.984375 -15.265625 C 1.753906 -15.285156 1.582031 -15.316406 1.46875 -15.359375 C 1.238281 -15.429688 1.125 -15.546875 1.125 -15.703125 C 1.125 -15.816406 1.191406 -15.921875 1.328125 -16.015625 C 1.585938 -16.242188 1.925781 -16.472656 2.34375 -16.703125 C 2.769531 -16.929688 3.109375 -17.160156 3.359375 -17.390625 C 3.441406 -17.453125 3.519531 -17.519531 3.59375 -17.59375 C 3.664062 -17.675781 3.703125 -17.773438 3.703125 -17.890625 C 3.703125 -18.140625 3.789062 -18.265625 3.96875 -18.265625 L 4.203125 -18.265625 C 4.316406 -18.265625 4.414062 -18.289062 4.5 -18.34375 C 4.582031 -18.40625 4.679688 -18.460938 4.796875 -18.515625 C 5.046875 -18.648438 5.273438 -18.785156 5.484375 -18.921875 C 5.703125 -19.054688 5.9375 -19.179688 6.1875 -19.296875 C 6.738281 -19.523438 7.265625 -19.640625 7.765625 -19.640625 C 8.222656 -19.640625 8.613281 -19.5625 8.9375 -19.40625 C 9.363281 -19.21875 9.722656 -18.972656 10.015625 -18.671875 C 10.316406 -18.378906 10.492188 -17.972656 10.546875 -17.453125 C 10.546875 -17.109375 10.585938 -16.800781 10.671875 -16.53125 C 10.691406 -16.476562 10.703125 -16.375 10.703125 -16.21875 C 10.703125 -15.96875 10.675781 -15.71875 10.625 -15.46875 C 10.570312 -15.21875 10.519531 -14.96875 10.46875 -14.71875 C 10.289062 -13.957031 10.019531 -13.257812 9.65625 -12.625 C 9.488281 -12.351562 9.3125 -12.09375 9.125 -11.84375 C 8.945312 -11.59375 8.769531 -11.34375 8.59375 -11.09375 C 8.25 -10.65625 7.859375 -10.234375 7.421875 -9.828125 C 7.378906 -9.773438 7.332031 -9.722656 7.28125 -9.671875 C 7.238281 -9.628906 7.21875 -9.566406 7.21875 -9.484375 L 7.25 -9.34375 L 7.765625 -9.171875 C 8.316406 -9.015625 8.796875 -8.726562 9.203125 -8.3125 C 9.273438 -8.21875 9.347656 -8.140625 9.421875 -8.078125 C 9.503906 -8.023438 9.582031 -7.957031 9.65625 -7.875 C 9.832031 -7.6875 9.921875 -7.503906 9.921875 -7.328125 C 9.921875 -7.210938 9.925781 -7.09375 9.9375 -6.96875 C 9.945312 -6.84375 9.953125 -6.722656 9.953125 -6.609375 C 9.953125 -6.398438 9.921875 -6.191406 9.859375 -5.984375 C 9.785156 -5.734375 9.695312 -5.472656 9.59375 -5.203125 C 9.488281 -4.929688 9.378906 -4.65625 9.265625 -4.375 C 9.046875 -3.925781 8.804688 -3.484375 8.546875 -3.046875 C 8.296875 -2.609375 8.035156 -2.175781 7.765625 -1.75 C 7.609375 -1.5 7.460938 -1.253906 7.328125 -1.015625 C 7.191406 -0.773438 7.050781 -0.53125 6.90625 -0.28125 C 6.820312 -0.113281 6.726562 0.03125 6.625 0.15625 C 6.519531 0.28125 6.421875 0.410156 6.328125 0.546875 C 6.078125 0.867188 5.828125 1.175781 5.578125 1.46875 C 5.328125 1.769531 5.078125 2.078125 4.828125 2.390625 C 4.640625 2.640625 4.4375 2.882812 4.21875 3.125 C 4.007812 3.363281 3.820312 3.609375 3.65625 3.859375 C 3.59375 4.003906 3.519531 4.140625 3.4375 4.265625 C 3.351562 4.390625 3.222656 4.472656 3.046875 4.515625 C 3.003906 4.535156 2.960938 4.578125 2.921875 4.640625 C 2.890625 4.710938 2.851562 4.773438 2.8125 4.828125 Z M 4.375 -9.578125 L 5.171875 -10.40625 C 5.515625 -10.863281 5.835938 -11.304688 6.140625 -11.734375 C 6.453125 -12.171875 6.78125 -12.601562 7.125 -13.03125 C 7.28125 -13.21875 7.429688 -13.40625 7.578125 -13.59375 C 7.722656 -13.789062 7.851562 -13.992188 7.96875 -14.203125 C 8.21875 -14.660156 8.398438 -15.117188 8.515625 -15.578125 C 8.628906 -16.046875 8.6875 -16.535156 8.6875 -17.046875 C 8.6875 -17.160156 8.679688 -17.269531 8.671875 -17.375 C 8.660156 -17.488281 8.632812 -17.601562 8.59375 -17.71875 C 8.425781 -18.15625 8.128906 -18.375 7.703125 -18.375 L 7.453125 -18.375 C 7.335938 -18.351562 7.210938 -18.316406 7.078125 -18.265625 C 6.941406 -18.222656 6.816406 -18.179688 6.703125 -18.140625 C 6.546875 -18.046875 6.40625 -17.953125 6.28125 -17.859375 C 6.15625 -17.765625 6.007812 -17.6875 5.84375 -17.625 C 5.570312 -17.488281 5.425781 -17.269531 5.40625 -16.96875 C 5.363281 -16.65625 5.316406 -16.351562 5.265625 -16.0625 C 5.222656 -15.78125 5.179688 -15.488281 5.140625 -15.1875 L 4.890625 -13.828125 C 4.867188 -13.640625 4.859375 -13.457031 4.859375 -13.28125 C 4.859375 -13.113281 4.835938 -12.941406 4.796875 -12.765625 C 4.722656 -12.515625 4.664062 -12.25 4.625 -11.96875 C 4.59375 -11.695312 4.566406 -11.4375 4.546875 -11.1875 C 4.546875 -11.03125 4.539062 -10.882812 4.53125 -10.75 C 4.519531 -10.613281 4.492188 -10.488281 4.453125 -10.375 C 4.335938 -10.226562 4.289062 -10.097656 4.3125 -9.984375 C 4.332031 -9.878906 4.320312 -9.769531 4.28125 -9.65625 Z M 4.078125 -8.421875 C 4.210938 -8.554688 4.289062 -8.675781 4.3125 -8.78125 C 4.332031 -8.882812 4.34375 -9.003906 4.34375 -9.140625 C 4.25 -9.003906 4.179688 -8.882812 4.140625 -8.78125 C 4.097656 -8.675781 4.078125 -8.554688 4.078125 -8.421875 Z M 2.9375 1.03125 C 3.007812 0.957031 3.070312 0.882812 3.125 0.8125 C 3.1875 0.75 3.238281 0.679688 3.28125 0.609375 L 5.75 -2.53125 L 6.4375 -3.65625 C 6.726562 -4.050781 6.992188 -4.445312 7.234375 -4.84375 C 7.472656 -5.238281 7.707031 -5.644531 7.9375 -6.0625 C 8.007812 -6.238281 8.066406 -6.378906 8.109375 -6.484375 C 8.148438 -6.585938 8.171875 -6.695312 8.171875 -6.8125 C 8.171875 -7.0625 7.957031 -7.332031 7.53125 -7.625 C 7.414062 -7.71875 7.296875 -7.789062 7.171875 -7.84375 C 7.046875 -7.90625 6.914062 -7.9375 6.78125 -7.9375 C 6.664062 -7.9375 6.539062 -7.90625 6.40625 -7.84375 L 5.890625 -7.671875 C 5.722656 -7.597656 5.550781 -7.5625 5.375 -7.5625 C 5.1875 -7.5625 5.015625 -7.617188 4.859375 -7.734375 C 4.742188 -7.828125 4.617188 -7.894531 4.484375 -7.9375 C 4.347656 -7.976562 4.195312 -8.035156 4.03125 -8.109375 C 3.988281 -7.929688 3.957031 -7.757812 3.9375 -7.59375 C 3.914062 -7.4375 3.890625 -7.28125 3.859375 -7.125 C 3.835938 -7.070312 3.828125 -6.96875 3.828125 -6.8125 L 3.828125 -6.53125 C 3.804688 -6.238281 3.785156 -5.945312 3.765625 -5.65625 C 3.742188 -5.375 3.6875 -5.097656 3.59375 -4.828125 C 3.550781 -4.691406 3.53125 -4.550781 3.53125 -4.40625 C 3.53125 -4.269531 3.515625 -4.132812 3.484375 -4 C 3.421875 -3.707031 3.347656 -3.414062 3.265625 -3.125 C 3.179688 -2.84375 3.117188 -2.539062 3.078125 -2.21875 C 3.035156 -1.925781 3 -1.625 2.96875 -1.3125 C 2.945312 -1.007812 2.914062 -0.707031 2.875 -0.40625 C 2.875 -0.363281 2.867188 -0.335938 2.859375 -0.328125 C 2.847656 -0.316406 2.84375 -0.285156 2.84375 -0.234375 C 2.84375 -0.0351562 2.835938 0.164062 2.828125 0.375 C 2.816406 0.582031 2.8125 0.789062 2.8125 1 C 2.851562 1 2.878906 1.003906 2.890625 1.015625 C 2.898438 1.023438 2.914062 1.03125 2.9375 1.03125 Z M 2.9375 1.03125 "/></g></g></g><g fill="#000000" fill-opacity="1"><g transform="translate(87.515328, 38.45209)"><g><path d="M 11.15625 -15.46875 C 11.15625 -15.445312 11.171875 -15.3125 11.203125 -15.0625 C 11.242188 -14.8125 11.285156 -14.59375 11.328125 -14.40625 L 11.328125 -13.71875 C 11.328125 -12.238281 11.175781 -10.816406 10.875 -9.453125 C 10.582031 -8.097656 10.34375 -6.769531 10.15625 -5.46875 L 9.984375 -4.28125 C 9.960938 -4.1875 9.941406 -4.109375 9.921875 -4.046875 C 9.898438 -3.992188 9.878906 -3.945312 9.859375 -3.90625 C 9.804688 -3.71875 9.75 -3.535156 9.6875 -3.359375 C 9.632812 -3.191406 9.585938 -3.007812 9.546875 -2.8125 C 9.523438 -2.625 9.46875 -2.445312 9.375 -2.28125 C 9.28125 -2.125 9.203125 -1.957031 9.140625 -1.78125 C 9.066406 -1.59375 8.992188 -1.425781 8.921875 -1.28125 C 8.859375 -1.132812 8.804688 -0.96875 8.765625 -0.78125 C 8.691406 -0.550781 8.59375 -0.351562 8.46875 -0.1875 C 8.34375 -0.0195312 8.257812 0.175781 8.21875 0.40625 C 8.21875 0.457031 8.179688 0.503906 8.109375 0.546875 C 8.035156 0.585938 7.976562 0.625 7.9375 0.65625 C 7.644531 0.832031 7.347656 1.003906 7.046875 1.171875 C 6.753906 1.347656 6.457031 1.53125 6.15625 1.71875 L 5.953125 1.8125 C 5.816406 2.0625 5.632812 2.21875 5.40625 2.28125 C 5.175781 2.351562 4.9375 2.414062 4.6875 2.46875 L 4.578125 2.46875 C 4.492188 2.488281 4.410156 2.5 4.328125 2.5 C 4.242188 2.5 4.171875 2.5 4.109375 2.5 C 3.554688 2.5 3.019531 2.335938 2.5 2.015625 C 2.382812 1.953125 2.28125 1.882812 2.1875 1.8125 C 2.09375 1.75 2.023438 1.644531 1.984375 1.5 C 1.960938 1.4375 1.914062 1.378906 1.84375 1.328125 C 1.78125 1.285156 1.710938 1.253906 1.640625 1.234375 L 1.640625 1.546875 C 1.460938 1.285156 1.28125 1.070312 1.09375 0.90625 C 0.914062 0.738281 0.8125 0.492188 0.78125 0.171875 C 0.78125 0.0546875 0.769531 -0.0078125 0.75 -0.03125 C 0.5 -0.414062 0.363281 -0.816406 0.34375 -1.234375 C 0.320312 -1.660156 0.285156 -2.09375 0.234375 -2.53125 L 0.234375 -2.765625 C 0.234375 -3.015625 0.253906 -3.269531 0.296875 -3.53125 C 0.347656 -3.800781 0.410156 -4.0625 0.484375 -4.3125 C 0.597656 -4.601562 0.675781 -4.894531 0.71875 -5.1875 C 0.757812 -5.488281 0.835938 -5.789062 0.953125 -6.09375 C 1.023438 -6.300781 1.085938 -6.523438 1.140625 -6.765625 C 1.203125 -7.003906 1.300781 -7.210938 1.4375 -7.390625 C 1.507812 -7.503906 1.554688 -7.617188 1.578125 -7.734375 C 1.597656 -7.847656 1.617188 -7.960938 1.640625 -8.078125 L 1.640625 -8.140625 C 1.660156 -8.273438 1.675781 -8.398438 1.6875 -8.515625 C 1.707031 -8.628906 1.769531 -8.742188 1.875 -8.859375 C 1.945312 -8.953125 1.988281 -9.066406 2 -9.203125 C 2.007812 -9.335938 2.023438 -9.460938 2.046875 -9.578125 C 2.160156 -9.898438 2.273438 -10.195312 2.390625 -10.46875 C 2.503906 -10.65625 2.570312 -10.84375 2.59375 -11.03125 C 2.625 -11.226562 2.660156 -11.414062 2.703125 -11.59375 L 2.765625 -11.984375 C 2.953125 -12.484375 3.128906 -12.972656 3.296875 -13.453125 C 3.472656 -13.929688 3.648438 -14.421875 3.828125 -14.921875 C 3.878906 -15.015625 3.914062 -15.109375 3.9375 -15.203125 C 3.957031 -15.304688 3.988281 -15.40625 4.03125 -15.5 C 4.082031 -15.613281 4.128906 -15.722656 4.171875 -15.828125 C 4.222656 -15.929688 4.28125 -16.023438 4.34375 -16.109375 C 4.6875 -16.484375 4.9375 -16.921875 5.09375 -17.421875 C 5.125 -17.460938 5.148438 -17.507812 5.171875 -17.5625 C 5.191406 -17.625 5.222656 -17.664062 5.265625 -17.6875 C 5.472656 -17.78125 5.628906 -17.910156 5.734375 -18.078125 C 5.835938 -18.253906 5.976562 -18.410156 6.15625 -18.546875 L 6.296875 -18.71875 C 6.453125 -19.039062 6.597656 -19.265625 6.734375 -19.390625 C 6.878906 -19.515625 7.085938 -19.578125 7.359375 -19.578125 L 7.625 -19.578125 C 8.269531 -19.523438 8.875 -19.34375 9.4375 -19.03125 C 9.507812 -19 9.582031 -18.929688 9.65625 -18.828125 C 9.507812 -18.734375 9.378906 -18.648438 9.265625 -18.578125 C 9.160156 -18.515625 9.035156 -18.445312 8.890625 -18.375 C 8.710938 -18.28125 8.570312 -18.160156 8.46875 -18.015625 C 8.363281 -17.867188 8.265625 -17.710938 8.171875 -17.546875 C 7.898438 -17.117188 7.660156 -16.675781 7.453125 -16.21875 L 6.671875 -14.640625 C 6.554688 -14.390625 6.484375 -14.132812 6.453125 -13.875 C 6.421875 -13.613281 6.390625 -13.359375 6.359375 -13.109375 C 6.335938 -12.898438 6.316406 -12.703125 6.296875 -12.515625 C 6.273438 -12.335938 6.21875 -12.160156 6.125 -11.984375 C 5.9375 -11.546875 5.789062 -11.101562 5.6875 -10.65625 C 5.59375 -10.207031 5.519531 -9.757812 5.46875 -9.3125 C 5.40625 -8.8125 5.3125 -8.320312 5.1875 -7.84375 C 5.0625 -7.363281 4.882812 -6.894531 4.65625 -6.4375 L 4.546875 -6.125 C 4.460938 -5.738281 4.382812 -5.359375 4.3125 -4.984375 C 4.238281 -4.609375 4.144531 -4.222656 4.03125 -3.828125 C 3.988281 -3.628906 3.945312 -3.421875 3.90625 -3.203125 C 3.875 -2.984375 3.835938 -2.769531 3.796875 -2.5625 L 3.796875 -2.328125 C 3.796875 -2.078125 3.800781 -1.84375 3.8125 -1.625 C 3.820312 -1.40625 3.828125 -1.179688 3.828125 -0.953125 L 3.828125 -0.609375 C 3.828125 -0.492188 3.863281 -0.382812 3.9375 -0.28125 C 4.070312 -0.09375 4.234375 0.0664062 4.421875 0.203125 C 4.523438 0.296875 4.632812 0.34375 4.75 0.34375 C 4.894531 0.34375 5.023438 0.285156 5.140625 0.171875 C 5.273438 0.015625 5.421875 -0.128906 5.578125 -0.265625 C 5.734375 -0.410156 5.859375 -0.582031 5.953125 -0.78125 C 5.992188 -0.925781 6.054688 -1.050781 6.140625 -1.15625 C 6.222656 -1.269531 6.273438 -1.421875 6.296875 -1.609375 C 6.296875 -1.722656 6.347656 -1.820312 6.453125 -1.90625 C 6.554688 -2 6.648438 -2.101562 6.734375 -2.21875 C 6.671875 -2.289062 6.640625 -2.375 6.640625 -2.46875 C 6.640625 -2.550781 6.660156 -2.628906 6.703125 -2.703125 C 6.753906 -2.773438 6.800781 -2.867188 6.84375 -2.984375 C 6.957031 -3.296875 7.050781 -3.628906 7.125 -3.984375 C 7.207031 -4.335938 7.304688 -4.6875 7.421875 -5.03125 C 7.535156 -5.414062 7.65625 -5.8125 7.78125 -6.21875 C 7.90625 -6.632812 8.035156 -7.046875 8.171875 -7.453125 C 8.171875 -7.484375 8.179688 -7.507812 8.203125 -7.53125 C 8.234375 -7.550781 8.25 -7.582031 8.25 -7.625 C 8.269531 -7.988281 8.34375 -8.335938 8.46875 -8.671875 C 8.59375 -9.003906 8.675781 -9.351562 8.71875 -9.71875 C 8.789062 -10.0625 8.859375 -10.40625 8.921875 -10.75 C 8.992188 -11.09375 9.054688 -11.445312 9.109375 -11.8125 C 9.109375 -11.851562 9.113281 -11.878906 9.125 -11.890625 C 9.132812 -11.898438 9.140625 -11.929688 9.140625 -11.984375 C 9.160156 -12.140625 9.175781 -12.289062 9.1875 -12.4375 C 9.195312 -12.582031 9.203125 -12.738281 9.203125 -12.90625 C 9.203125 -13.269531 9.15625 -13.578125 9.0625 -13.828125 C 9.039062 -13.847656 9.03125 -13.914062 9.03125 -14.03125 L 9.03125 -14.34375 C 9.03125 -14.65625 8.992188 -14.972656 8.921875 -15.296875 C 8.859375 -15.617188 8.78125 -15.9375 8.6875 -16.25 C 8.664062 -16.300781 8.65625 -16.382812 8.65625 -16.5 C 8.65625 -16.675781 8.703125 -16.84375 8.796875 -17 C 8.890625 -17.164062 8.976562 -17.316406 9.0625 -17.453125 C 9.113281 -17.515625 9.207031 -17.546875 9.34375 -17.546875 C 9.476562 -17.523438 9.609375 -17.5 9.734375 -17.46875 C 9.859375 -17.4375 9.976562 -17.351562 10.09375 -17.21875 C 10.132812 -17.144531 10.226562 -17.085938 10.375 -17.046875 C 10.664062 -17.046875 10.820312 -16.894531 10.84375 -16.59375 C 10.894531 -16.476562 10.921875 -16.363281 10.921875 -16.25 C 10.921875 -16.132812 10.929688 -16.019531 10.953125 -15.90625 L 11.046875 -15.640625 C 11.078125 -15.585938 11.101562 -15.550781 11.125 -15.53125 C 11.144531 -15.507812 11.15625 -15.488281 11.15625 -15.46875 Z M 3.765625 -5.578125 L 3.765625 -5.46875 L 3.796875 -5.46875 C 3.867188 -5.46875 3.90625 -5.503906 3.90625 -5.578125 L 3.90625 -5.640625 C 3.90625 -5.710938 3.890625 -5.757812 3.859375 -5.78125 C 3.796875 -5.757812 3.765625 -5.691406 3.765625 -5.578125 Z M 2.765625 -0.109375 C 2.816406 -0.0351562 2.878906 0.03125 2.953125 0.09375 C 3.035156 0.164062 3.097656 0.238281 3.140625 0.3125 C 3.191406 0.351562 3.285156 0.375 3.421875 0.375 L 3.421875 0.3125 L 3.453125 0.171875 C 3.453125 0.128906 3.445312 0.0820312 3.4375 0.03125 C 3.425781 -0.0078125 3.410156 -0.0546875 3.390625 -0.109375 C 3.253906 -0.421875 3.164062 -0.75 3.125 -1.09375 C 3.09375 -1.4375 3.078125 -1.78125 3.078125 -2.125 L 3.078125 -2.671875 C 3.015625 -2.554688 2.960938 -2.472656 2.921875 -2.421875 C 2.890625 -2.378906 2.863281 -2.300781 2.84375 -2.1875 C 2.820312 -2.050781 2.8125 -1.910156 2.8125 -1.765625 C 2.8125 -1.617188 2.773438 -1.488281 2.703125 -1.375 C 2.609375 -1.164062 2.5625 -0.992188 2.5625 -0.859375 C 2.5625 -0.722656 2.582031 -0.59375 2.625 -0.46875 C 2.675781 -0.34375 2.722656 -0.222656 2.765625 -0.109375 Z M 2.015625 -1 C 2.035156 -1.019531 2.082031 -1.03125 2.15625 -1.03125 L 1.984375 -1.671875 C 1.890625 -1.585938 1.84375 -1.488281 1.84375 -1.375 C 1.84375 -1.257812 1.890625 -1.144531 1.984375 -1.03125 Z M 1.5 0.890625 C 1.457031 0.910156 1.425781 0.925781 1.40625 0.9375 C 1.382812 0.945312 1.375 0.953125 1.375 0.953125 L 1.609375 1.15625 Z M 3.484375 1.578125 L 3.484375 1.546875 C 3.484375 1.472656 3.425781 1.4375 3.3125 1.4375 L 3.390625 1.5 C 3.429688 1.550781 3.460938 1.578125 3.484375 1.578125 Z M 3.484375 1.578125 "/></g></g></g><g fill="#000000" fill-opacity="1"><g transform="translate(98.597859, 38.45209)"><g><path d="M 2.21875 2.328125 C 1.945312 2.285156 1.726562 2.265625 1.5625 2.265625 C 1.40625 2.265625 1.269531 2.265625 1.15625 2.265625 L 0.890625 2.265625 C 0.703125 2.265625 0.550781 2.226562 0.4375 2.15625 C 0.332031 2.0625 0.242188 1.945312 0.171875 1.8125 C 0.0351562 1.5625 -0.03125 1.265625 -0.03125 0.921875 C -0.03125 0.628906 0 0.332031 0.0625 0.03125 C 0.207031 -0.675781 0.359375 -1.484375 0.515625 -2.390625 C 0.671875 -3.304688 0.832031 -4.21875 1 -5.125 C 1.175781 -6.039062 1.332031 -6.84375 1.46875 -7.53125 C 1.632812 -8.394531 1.78125 -9.253906 1.90625 -10.109375 C 2.03125 -10.960938 2.148438 -11.820312 2.265625 -12.6875 C 2.328125 -13.21875 2.40625 -13.753906 2.5 -14.296875 C 2.59375 -14.847656 2.679688 -15.382812 2.765625 -15.90625 C 2.816406 -16.300781 2.882812 -16.691406 2.96875 -17.078125 C 3.0625 -17.460938 3.144531 -17.847656 3.21875 -18.234375 L 3.390625 -19.296875 C 3.429688 -19.484375 3.476562 -19.597656 3.53125 -19.640625 C 3.59375 -19.679688 3.726562 -19.726562 3.9375 -19.78125 L 4.828125 -19.921875 C 5.253906 -19.921875 5.46875 -19.75 5.46875 -19.40625 L 5.46875 -19.234375 C 5.425781 -19.003906 5.398438 -18.773438 5.390625 -18.546875 C 5.378906 -18.316406 5.375 -18.085938 5.375 -17.859375 L 5.375 -17.171875 C 5.375 -17.035156 5.367188 -16.898438 5.359375 -16.765625 C 5.347656 -16.628906 5.328125 -16.492188 5.296875 -16.359375 L 5.296875 -15.953125 C 5.328125 -15.953125 5.382812 -16.003906 5.46875 -16.109375 C 5.5625 -16.222656 5.847656 -16.625 6.328125 -17.3125 C 7.015625 -18.269531 7.828125 -18.863281 8.765625 -19.09375 C 9.035156 -19.164062 9.296875 -19.203125 9.546875 -19.203125 C 9.835938 -19.203125 10.132812 -19.128906 10.4375 -18.984375 C 10.757812 -18.847656 11.007812 -18.578125 11.1875 -18.171875 C 11.257812 -18.015625 11.320312 -17.851562 11.375 -17.6875 C 11.4375 -17.53125 11.476562 -17.375 11.5 -17.21875 C 11.519531 -17.164062 11.53125 -17.035156 11.53125 -16.828125 C 11.53125 -16.578125 11.519531 -16.421875 11.5 -16.359375 C 11.476562 -16.222656 11.445312 -16.082031 11.40625 -15.9375 C 11.375 -15.800781 11.347656 -15.664062 11.328125 -15.53125 C 11.285156 -15.21875 11.1875 -14.941406 11.03125 -14.703125 C 10.882812 -14.460938 10.742188 -14.21875 10.609375 -13.96875 C 10.515625 -13.800781 10.414062 -13.640625 10.3125 -13.484375 C 10.207031 -13.328125 10.097656 -13.164062 9.984375 -13 L 9.609375 -12.453125 C 9.523438 -12.335938 9.429688 -12.234375 9.328125 -12.140625 C 9.222656 -12.054688 9.125 -11.957031 9.03125 -11.84375 C 8.851562 -11.613281 8.648438 -11.441406 8.421875 -11.328125 C 8.191406 -11.210938 7.960938 -11.078125 7.734375 -10.921875 C 7.691406 -10.867188 7.640625 -10.804688 7.578125 -10.734375 C 7.523438 -10.671875 7.472656 -10.609375 7.421875 -10.546875 C 7.378906 -10.492188 7.359375 -10.445312 7.359375 -10.40625 L 7.390625 -10.265625 C 7.484375 -10.078125 7.566406 -9.882812 7.640625 -9.6875 C 7.722656 -9.5 7.820312 -9.316406 7.9375 -9.140625 C 8.070312 -8.816406 8.164062 -8.484375 8.21875 -8.140625 C 8.28125 -7.796875 8.347656 -7.457031 8.421875 -7.125 C 8.484375 -6.75 8.5625 -6.382812 8.65625 -6.03125 C 8.75 -5.6875 8.828125 -5.332031 8.890625 -4.96875 C 9.035156 -4.457031 9.140625 -3.941406 9.203125 -3.421875 C 9.242188 -2.867188 9.3125 -2.332031 9.40625 -1.8125 C 9.5 -1.289062 9.640625 -0.765625 9.828125 -0.234375 C 9.867188 -0.0976562 9.898438 0.0390625 9.921875 0.1875 C 9.941406 0.332031 9.960938 0.488281 9.984375 0.65625 C 9.984375 0.851562 9.9375 1.007812 9.84375 1.125 C 9.757812 1.238281 9.660156 1.351562 9.546875 1.46875 C 9.335938 1.582031 9.125 1.660156 8.90625 1.703125 C 8.695312 1.753906 8.46875 1.789062 8.21875 1.8125 C 7.820312 1.8125 7.566406 1.675781 7.453125 1.40625 C 7.296875 1.15625 7.160156 0.890625 7.046875 0.609375 C 6.929688 0.335938 6.863281 0.0390625 6.84375 -0.28125 C 6.84375 -0.550781 6.8125 -0.816406 6.75 -1.078125 C 6.695312 -1.335938 6.648438 -1.601562 6.609375 -1.875 C 6.554688 -2.238281 6.515625 -2.601562 6.484375 -2.96875 C 6.453125 -3.34375 6.410156 -3.710938 6.359375 -4.078125 C 6.222656 -5.328125 6.050781 -6.507812 5.84375 -7.625 C 5.757812 -8.0625 5.660156 -8.488281 5.546875 -8.90625 C 5.429688 -9.332031 5.316406 -9.765625 5.203125 -10.203125 L 4.890625 -11.046875 L 4.75 -11.046875 L 4.71875 -10.703125 C 4.738281 -10.597656 4.75 -10.5 4.75 -10.40625 C 4.75 -10.3125 4.75 -10.207031 4.75 -10.09375 C 4.75 -9.863281 4.734375 -9.617188 4.703125 -9.359375 C 4.671875 -9.097656 4.628906 -8.84375 4.578125 -8.59375 C 4.492188 -8.019531 4.398438 -7.273438 4.296875 -6.359375 C 4.191406 -5.453125 4.078125 -4.492188 3.953125 -3.484375 C 3.828125 -2.484375 3.675781 -1.539062 3.5 -0.65625 C 3.332031 0.21875 3.144531 0.929688 2.9375 1.484375 C 2.738281 2.046875 2.5 2.328125 2.21875 2.328125 Z M 4.859375 -11.328125 C 4.972656 -11.421875 5.054688 -11.492188 5.109375 -11.546875 C 5.171875 -11.609375 5.234375 -11.660156 5.296875 -11.703125 C 5.640625 -11.859375 5.957031 -12.054688 6.25 -12.296875 C 6.550781 -12.535156 6.851562 -12.769531 7.15625 -13 C 8.34375 -13.863281 9.148438 -15.03125 9.578125 -16.5 C 9.671875 -16.695312 9.71875 -16.96875 9.71875 -17.3125 C 9.71875 -17.632812 9.632812 -17.878906 9.46875 -18.046875 C 9.3125 -18.222656 9.117188 -18.3125 8.890625 -18.3125 C 8.734375 -18.3125 8.578125 -18.265625 8.421875 -18.171875 C 8.191406 -18.054688 7.96875 -17.910156 7.75 -17.734375 C 7.53125 -17.566406 7.332031 -17.394531 7.15625 -17.21875 C 6.789062 -16.851562 6.5 -16.453125 6.28125 -16.015625 C 6.0625 -15.578125 5.863281 -15.132812 5.6875 -14.6875 C 5.59375 -14.476562 5.519531 -14.265625 5.46875 -14.046875 C 5.425781 -13.828125 5.347656 -13.628906 5.234375 -13.453125 C 5.023438 -13.128906 4.921875 -12.789062 4.921875 -12.4375 C 4.921875 -12.082031 4.898438 -11.710938 4.859375 -11.328125 Z M 4.859375 -11.328125 "/></g></g></g><g fill="#ffc107" fill-opacity="1"><g transform="translate(109.346293, 38.45209)"><g><path d="M 12.734375 2.671875 C 12.566406 2.484375 12.421875 2.316406 12.296875 2.171875 C 12.171875 2.023438 12.066406 1.847656 11.984375 1.640625 L 10.640625 -1.15625 L 10.328125 -1.71875 C 10.078125 -1.394531 9.828125 -1.09375 9.578125 -0.8125 C 9.328125 -0.539062 9.085938 -0.257812 8.859375 0.03125 C 8.679688 0.28125 8.476562 0.40625 8.25 0.40625 C 8.132812 0.40625 8.050781 0.394531 8 0.375 C 7.894531 0.695312 7.757812 0.976562 7.59375 1.21875 C 7.4375 1.457031 7.253906 1.675781 7.046875 1.875 C 6.703125 2.21875 6.257812 2.390625 5.71875 2.390625 C 5.601562 2.390625 5.492188 2.382812 5.390625 2.375 C 5.285156 2.363281 5.175781 2.347656 5.0625 2.328125 C 4.789062 2.285156 4.519531 2.222656 4.25 2.140625 C 3.988281 2.054688 3.722656 1.992188 3.453125 1.953125 C 3.359375 1.929688 3.269531 1.921875 3.1875 1.921875 C 3.113281 1.921875 3.046875 1.921875 2.984375 1.921875 C 2.929688 1.867188 2.898438 1.8125 2.890625 1.75 C 2.878906 1.695312 2.851562 1.660156 2.8125 1.640625 C 2.550781 1.484375 2.351562 1.289062 2.21875 1.0625 C 2.082031 0.832031 1.957031 0.59375 1.84375 0.34375 C 1.757812 0.1875 1.71875 -0.03125 1.71875 -0.3125 C 1.71875 -0.582031 1.75 -0.851562 1.8125 -1.125 C 1.8125 -1.144531 1.816406 -1.160156 1.828125 -1.171875 C 1.835938 -1.191406 1.84375 -1.210938 1.84375 -1.234375 C 1.894531 -1.410156 1.953125 -1.570312 2.015625 -1.71875 C 2.085938 -1.875 2.125 -2.03125 2.125 -2.1875 C 2.144531 -2.4375 2.210938 -2.664062 2.328125 -2.875 C 2.441406 -3.082031 2.546875 -3.300781 2.640625 -3.53125 C 2.722656 -3.726562 2.773438 -3.9375 2.796875 -4.15625 C 2.828125 -4.375 2.898438 -4.585938 3.015625 -4.796875 C 3.210938 -5.203125 3.410156 -5.617188 3.609375 -6.046875 C 3.804688 -6.484375 4.019531 -6.910156 4.25 -7.328125 C 4.382812 -7.597656 4.523438 -7.859375 4.671875 -8.109375 C 4.816406 -8.359375 4.984375 -8.609375 5.171875 -8.859375 C 5.285156 -9.046875 5.40625 -9.234375 5.53125 -9.421875 C 5.65625 -9.617188 5.804688 -9.804688 5.984375 -9.984375 C 6.148438 -10.148438 6.234375 -10.335938 6.234375 -10.546875 C 6.234375 -10.703125 6.195312 -10.847656 6.125 -10.984375 C 5.96875 -11.367188 5.863281 -11.753906 5.8125 -12.140625 C 5.769531 -12.535156 5.726562 -12.925781 5.6875 -13.3125 C 5.632812 -13.65625 5.597656 -13.992188 5.578125 -14.328125 C 5.554688 -14.671875 5.535156 -15.03125 5.515625 -15.40625 C 5.515625 -15.46875 5.515625 -15.535156 5.515625 -15.609375 C 5.515625 -15.691406 5.535156 -15.769531 5.578125 -15.84375 L 6.015625 -17.3125 C 6.066406 -17.46875 6.144531 -17.597656 6.25 -17.703125 C 6.351562 -17.804688 6.4375 -17.914062 6.5 -18.03125 C 6.632812 -18.101562 6.8125 -18.242188 7.03125 -18.453125 C 7.25 -18.671875 7.476562 -18.890625 7.71875 -19.109375 C 7.957031 -19.328125 8.144531 -19.457031 8.28125 -19.5 C 8.53125 -19.59375 8.828125 -19.640625 9.171875 -19.640625 C 9.234375 -19.640625 9.304688 -19.640625 9.390625 -19.640625 C 9.472656 -19.640625 9.546875 -19.628906 9.609375 -19.609375 C 9.816406 -19.554688 10.023438 -19.507812 10.234375 -19.46875 C 10.441406 -19.425781 10.632812 -19.359375 10.8125 -19.265625 C 11.40625 -18.941406 11.703125 -18.484375 11.703125 -17.890625 C 11.703125 -17.691406 11.710938 -17.492188 11.734375 -17.296875 C 11.753906 -17.097656 11.765625 -16.898438 11.765625 -16.703125 C 11.765625 -16.472656 11.734375 -16.234375 11.671875 -15.984375 C 11.617188 -15.867188 11.550781 -15.742188 11.46875 -15.609375 C 11.394531 -15.472656 11.359375 -15.347656 11.359375 -15.234375 C 11.359375 -14.929688 11.289062 -14.65625 11.15625 -14.40625 L 9.890625 -11.875 C 9.753906 -11.625 9.601562 -11.382812 9.4375 -11.15625 C 9.28125 -10.925781 9.132812 -10.6875 9 -10.4375 C 8.90625 -10.28125 8.820312 -10.125 8.75 -9.96875 C 8.6875 -9.820312 8.625 -9.671875 8.5625 -9.515625 C 8.5625 -9.378906 8.582031 -9.242188 8.625 -9.109375 C 8.757812 -8.804688 8.894531 -8.519531 9.03125 -8.25 C 9.164062 -7.976562 9.316406 -7.703125 9.484375 -7.421875 L 10.78125 -4.96875 L 12.828125 -7.671875 C 12.898438 -7.785156 12.972656 -7.875 13.046875 -7.9375 C 13.128906 -8.007812 13.21875 -8.085938 13.3125 -8.171875 C 13.539062 -8.398438 13.789062 -8.515625 14.0625 -8.515625 C 14.15625 -8.515625 14.242188 -8.507812 14.328125 -8.5 C 14.421875 -8.488281 14.539062 -8.472656 14.6875 -8.453125 L 14.6875 -8.109375 C 14.65625 -7.972656 14.632812 -7.828125 14.625 -7.671875 C 14.613281 -7.523438 14.585938 -7.375 14.546875 -7.21875 C 14.523438 -7.039062 14.457031 -6.859375 14.34375 -6.671875 C 14.175781 -6.398438 13.984375 -6.148438 13.765625 -5.921875 C 13.554688 -5.691406 13.359375 -5.441406 13.171875 -5.171875 C 12.960938 -4.828125 12.71875 -4.5 12.4375 -4.1875 C 12.15625 -3.882812 11.875 -3.5625 11.59375 -3.21875 C 11.644531 -2.96875 11.703125 -2.695312 11.765625 -2.40625 C 11.835938 -2.125 11.960938 -1.847656 12.140625 -1.578125 C 12.304688 -1.328125 12.453125 -1.050781 12.578125 -0.75 C 12.703125 -0.457031 12.84375 -0.171875 13 0.109375 C 13.050781 0.171875 13.085938 0.234375 13.109375 0.296875 C 13.128906 0.367188 13.160156 0.429688 13.203125 0.484375 C 13.390625 0.566406 13.515625 0.691406 13.578125 0.859375 C 13.648438 1.035156 13.753906 1.179688 13.890625 1.296875 C 13.941406 1.347656 13.96875 1.429688 13.96875 1.546875 C 13.96875 1.660156 13.976562 1.769531 14 1.875 Z M 7.53125 -12.625 C 7.570312 -12.71875 7.617188 -12.800781 7.671875 -12.875 C 7.734375 -12.957031 7.800781 -13.046875 7.875 -13.140625 L 8.109375 -13.546875 C 8.492188 -14.140625 8.8125 -14.75 9.0625 -15.375 C 9.3125 -16.007812 9.53125 -16.65625 9.71875 -17.3125 C 9.757812 -17.445312 9.78125 -17.578125 9.78125 -17.703125 C 9.78125 -17.828125 9.78125 -17.960938 9.78125 -18.109375 C 9.78125 -18.328125 9.691406 -18.4375 9.515625 -18.4375 C 9.492188 -18.4375 9.472656 -18.429688 9.453125 -18.421875 C 9.441406 -18.410156 9.414062 -18.40625 9.375 -18.40625 C 9.332031 -18.40625 9.285156 -18.398438 9.234375 -18.390625 C 9.191406 -18.378906 9.148438 -18.363281 9.109375 -18.34375 C 8.878906 -18.15625 8.644531 -17.96875 8.40625 -17.78125 C 8.164062 -17.601562 7.976562 -17.378906 7.84375 -17.109375 L 7.328125 -15.875 C 7.296875 -15.851562 7.28125 -15.820312 7.28125 -15.78125 C 7.28125 -15.59375 7.265625 -15.425781 7.234375 -15.28125 C 7.203125 -15.132812 7.1875 -14.96875 7.1875 -14.78125 C 7.1875 -14.738281 7.191406 -14.691406 7.203125 -14.640625 C 7.210938 -14.597656 7.21875 -14.554688 7.21875 -14.515625 C 7.257812 -14.191406 7.285156 -13.878906 7.296875 -13.578125 C 7.316406 -13.285156 7.347656 -12.976562 7.390625 -12.65625 C 7.410156 -12.65625 7.425781 -12.648438 7.4375 -12.640625 C 7.445312 -12.628906 7.476562 -12.625 7.53125 -12.625 Z M 4.921875 1 C 4.992188 0.945312 5.0625 0.910156 5.125 0.890625 C 5.195312 0.867188 5.253906 0.832031 5.296875 0.78125 C 5.660156 0.46875 6.023438 0.144531 6.390625 -0.1875 C 6.765625 -0.519531 7.132812 -0.859375 7.5 -1.203125 C 7.789062 -1.492188 8.070312 -1.789062 8.34375 -2.09375 C 8.625 -2.40625 8.898438 -2.722656 9.171875 -3.046875 C 9.378906 -3.253906 9.484375 -3.398438 9.484375 -3.484375 C 9.484375 -3.554688 9.4375 -3.671875 9.34375 -3.828125 C 9.070312 -4.398438 8.796875 -4.972656 8.515625 -5.546875 C 8.242188 -6.117188 7.960938 -6.6875 7.671875 -7.25 C 7.617188 -7.34375 7.535156 -7.445312 7.421875 -7.5625 C 7.304688 -7.445312 7.207031 -7.34375 7.125 -7.25 C 7.050781 -7.164062 6.992188 -7.066406 6.953125 -6.953125 C 6.765625 -6.554688 6.597656 -6.171875 6.453125 -5.796875 C 6.304688 -5.421875 6.140625 -5.050781 5.953125 -4.6875 C 5.703125 -4.226562 5.503906 -3.769531 5.359375 -3.3125 C 5.210938 -2.863281 5.066406 -2.398438 4.921875 -1.921875 C 4.671875 -1.328125 4.535156 -0.734375 4.515625 -0.140625 C 4.515625 0.0859375 4.550781 0.285156 4.625 0.453125 C 4.707031 0.628906 4.804688 0.8125 4.921875 1 Z M 4.921875 1 "/></g></g></g><g fill="#000000" fill-opacity="1"><g transform="translate(125.084312, 38.45209)"><g><path d="M 8.421875 2.265625 C 8.367188 2.265625 8.273438 2.222656 8.140625 2.140625 C 8.003906 2.054688 7.90625 2.015625 7.84375 2.015625 C 7.8125 2.015625 7.738281 2.023438 7.625 2.046875 C 7.507812 2.078125 7.410156 2.09375 7.328125 2.09375 C 6.679688 2.09375 6.257812 1.710938 6.0625 0.953125 C 6.03125 0.816406 6.003906 0.679688 5.984375 0.546875 C 5.960938 0.410156 5.953125 0.273438 5.953125 0.140625 L 6.125 -3.90625 C 6.144531 -4.351562 6.1875 -4.796875 6.25 -5.234375 C 6.320312 -5.671875 6.394531 -6.113281 6.46875 -6.5625 C 6.488281 -6.84375 6.519531 -7.128906 6.5625 -7.421875 C 6.613281 -7.722656 6.671875 -8.03125 6.734375 -8.34375 L 4.375 -8.34375 C 4.21875 -8.34375 4.082031 -8.253906 3.96875 -8.078125 C 3.875 -7.890625 3.773438 -7.695312 3.671875 -7.5 C 3.578125 -7.3125 3.503906 -7.128906 3.453125 -6.953125 C 3.335938 -6.691406 3.222656 -6.4375 3.109375 -6.1875 C 2.992188 -5.9375 2.925781 -5.675781 2.90625 -5.40625 C 2.882812 -5.289062 2.835938 -5.203125 2.765625 -5.140625 C 2.585938 -4.929688 2.421875 -4.609375 2.265625 -4.171875 C 2.117188 -3.742188 1.976562 -3.304688 1.84375 -2.859375 C 1.707031 -2.410156 1.582031 -2.070312 1.46875 -1.84375 C 1.351562 -1.613281 1.257812 -1.378906 1.1875 -1.140625 C 1.125 -0.898438 1.035156 -0.65625 0.921875 -0.40625 C 0.765625 -0.0390625 0.523438 0.140625 0.203125 0.140625 C 0.109375 0.140625 -0.0351562 0.117188 -0.234375 0.078125 C -0.441406 0.046875 -0.601562 0.0078125 -0.71875 -0.03125 C -0.8125 -0.125 -0.859375 -0.25 -0.859375 -0.40625 C -0.835938 -0.59375 -0.800781 -0.75 -0.75 -0.875 C -0.707031 -1 -0.648438 -1.117188 -0.578125 -1.234375 C -0.535156 -1.410156 -0.46875 -1.582031 -0.375 -1.75 C -0.351562 -1.863281 -0.296875 -2.066406 -0.203125 -2.359375 C -0.109375 -2.660156 -0.015625 -2.957031 0.078125 -3.25 C 0.179688 -3.550781 0.257812 -3.742188 0.3125 -3.828125 C 0.425781 -3.992188 0.507812 -4.164062 0.5625 -4.34375 C 0.625 -4.53125 0.695312 -4.710938 0.78125 -4.890625 C 0.832031 -5.023438 0.875 -5.160156 0.90625 -5.296875 C 0.9375 -5.441406 0.988281 -5.570312 1.0625 -5.6875 C 1.125 -5.789062 1.191406 -5.890625 1.265625 -5.984375 C 1.335938 -6.078125 1.40625 -6.179688 1.46875 -6.296875 L 1.578125 -6.40625 C 1.753906 -6.65625 1.914062 -6.929688 2.0625 -7.234375 C 2.21875 -7.546875 2.335938 -7.859375 2.421875 -8.171875 C 2.378906 -8.171875 2.347656 -8.175781 2.328125 -8.1875 C 2.304688 -8.207031 2.21875 -8.222656 2.0625 -8.234375 C 1.914062 -8.242188 1.613281 -8.25 1.15625 -8.25 L 0.546875 -8.25 C 0.316406 -8.25 0.0664062 -8.304688 -0.203125 -8.421875 C -0.222656 -8.421875 -0.234375 -8.453125 -0.234375 -8.515625 L -0.234375 -8.796875 C -0.234375 -8.890625 -0.191406 -8.957031 -0.109375 -9 C -0.0351562 -9.039062 0.0078125 -9.0625 0.03125 -9.0625 L 2.703125 -9.375 C 2.910156 -9.414062 3.046875 -9.519531 3.109375 -9.6875 C 3.316406 -10.03125 3.457031 -10.347656 3.53125 -10.640625 C 3.613281 -10.941406 3.722656 -11.285156 3.859375 -11.671875 L 5.375 -15.5625 L 5.578125 -16.21875 C 5.753906 -16.851562 5.976562 -17.472656 6.25 -18.078125 C 6.53125 -18.679688 6.820312 -19.28125 7.125 -19.875 C 7.28125 -20.195312 7.4375 -20.457031 7.59375 -20.65625 C 7.757812 -20.863281 7.84375 -21.117188 7.84375 -21.421875 L 8.5625 -21.421875 C 8.71875 -21.421875 8.875 -21.398438 9.03125 -21.359375 C 9.1875 -21.328125 9.335938 -21.234375 9.484375 -21.078125 C 9.523438 -21.035156 9.566406 -20.988281 9.609375 -20.9375 C 9.660156 -20.894531 9.6875 -20.835938 9.6875 -20.765625 C 10 -19.441406 10.195312 -18.46875 10.28125 -17.84375 C 10.363281 -17.21875 10.425781 -16.675781 10.46875 -16.21875 L 10.46875 -15.90625 C 10.46875 -15.726562 10.394531 -15.382812 10.25 -14.875 C 10.101562 -14.375 9.953125 -13.878906 9.796875 -13.390625 C 9.648438 -12.898438 9.578125 -12.566406 9.578125 -12.390625 L 9.484375 -9.65625 C 9.410156 -9.125 9.378906 -8.617188 9.390625 -8.140625 C 9.398438 -7.660156 9.382812 -7.179688 9.34375 -6.703125 L 9.203125 -5.84375 C 9.160156 -5.664062 9.140625 -5.503906 9.140625 -5.359375 C 9.140625 -5.210938 9.140625 -5.054688 9.140625 -4.890625 C 9.140625 -4.710938 9.140625 -4.519531 9.140625 -4.3125 C 9.140625 -4.101562 9.148438 -3.910156 9.171875 -3.734375 L 9.203125 -3.390625 C 9.203125 -3.203125 9.191406 -3.015625 9.171875 -2.828125 C 9.148438 -2.648438 9.128906 -2.472656 9.109375 -2.296875 C 9.109375 -1.992188 9.109375 -1.726562 9.109375 -1.5 C 9.109375 -1.269531 9.128906 -1.03125 9.171875 -0.78125 L 9.171875 -0.34375 C 9.171875 -0.0703125 9.171875 0.1875 9.171875 0.4375 C 9.171875 0.695312 9.179688 0.914062 9.203125 1.09375 C 9.203125 1.09375 9.164062 1.179688 9.09375 1.359375 C 9.03125 1.546875 8.9375 1.726562 8.8125 1.90625 C 8.6875 2.09375 8.554688 2.210938 8.421875 2.265625 Z M 4.921875 -9.3125 C 5.242188 -9.3125 5.550781 -9.328125 5.84375 -9.359375 C 6.144531 -9.390625 6.457031 -9.429688 6.78125 -9.484375 C 6.800781 -9.734375 6.828125 -9.957031 6.859375 -10.15625 C 6.890625 -10.363281 6.921875 -10.582031 6.953125 -10.8125 C 7.015625 -11.3125 7.128906 -11.972656 7.296875 -12.796875 C 7.472656 -13.617188 7.644531 -14.445312 7.8125 -15.28125 C 7.988281 -16.113281 8.085938 -16.769531 8.109375 -17.25 C 8.109375 -17.289062 8.113281 -17.332031 8.125 -17.375 C 8.132812 -17.425781 8.140625 -17.472656 8.140625 -17.515625 C 8.140625 -17.816406 8.082031 -18.140625 7.96875 -18.484375 L 4.453125 -9.34375 C 4.535156 -9.34375 4.617188 -9.335938 4.703125 -9.328125 C 4.785156 -9.316406 4.859375 -9.3125 4.921875 -9.3125 Z M 4.921875 -9.3125 "/></g></g></g><g fill="#000000" fill-opacity="1"><g transform="translate(135.448514, 38.45209)"><g><path d="M 2.21875 2.328125 C 1.945312 2.285156 1.726562 2.265625 1.5625 2.265625 C 1.40625 2.265625 1.269531 2.265625 1.15625 2.265625 L 0.890625 2.265625 C 0.703125 2.265625 0.550781 2.226562 0.4375 2.15625 C 0.332031 2.0625 0.242188 1.945312 0.171875 1.8125 C 0.0351562 1.5625 -0.03125 1.265625 -0.03125 0.921875 C -0.03125 0.628906 0 0.332031 0.0625 0.03125 C 0.207031 -0.675781 0.359375 -1.484375 0.515625 -2.390625 C 0.671875 -3.304688 0.832031 -4.21875 1 -5.125 C 1.175781 -6.039062 1.332031 -6.84375 1.46875 -7.53125 C 1.632812 -8.394531 1.78125 -9.253906 1.90625 -10.109375 C 2.03125 -10.960938 2.148438 -11.820312 2.265625 -12.6875 C 2.328125 -13.21875 2.40625 -13.753906 2.5 -14.296875 C 2.59375 -14.847656 2.679688 -15.382812 2.765625 -15.90625 C 2.816406 -16.300781 2.882812 -16.691406 2.96875 -17.078125 C 3.0625 -17.460938 3.144531 -17.847656 3.21875 -18.234375 L 3.390625 -19.296875 C 3.429688 -19.484375 3.476562 -19.597656 3.53125 -19.640625 C 3.59375 -19.679688 3.726562 -19.726562 3.9375 -19.78125 L 4.828125 -19.921875 C 5.253906 -19.921875 5.46875 -19.75 5.46875 -19.40625 L 5.46875 -19.234375 C 5.425781 -19.003906 5.398438 -18.773438 5.390625 -18.546875 C 5.378906 -18.316406 5.375 -18.085938 5.375 -17.859375 L 5.375 -17.171875 C 5.375 -17.035156 5.367188 -16.898438 5.359375 -16.765625 C 5.347656 -16.628906 5.328125 -16.492188 5.296875 -16.359375 L 5.296875 -15.953125 C 5.328125 -15.953125 5.382812 -16.003906 5.46875 -16.109375 C 5.5625 -16.222656 5.847656 -16.625 6.328125 -17.3125 C 7.015625 -18.269531 7.828125 -18.863281 8.765625 -19.09375 C 9.035156 -19.164062 9.296875 -19.203125 9.546875 -19.203125 C 9.835938 -19.203125 10.132812 -19.128906 10.4375 -18.984375 C 10.757812 -18.847656 11.007812 -18.578125 11.1875 -18.171875 C 11.257812 -18.015625 11.320312 -17.851562 11.375 -17.6875 C 11.4375 -17.53125 11.476562 -17.375 11.5 -17.21875 C 11.519531 -17.164062 11.53125 -17.035156 11.53125 -16.828125 C 11.53125 -16.578125 11.519531 -16.421875 11.5 -16.359375 C 11.476562 -16.222656 11.445312 -16.082031 11.40625 -15.9375 C 11.375 -15.800781 11.347656 -15.664062 11.328125 -15.53125 C 11.285156 -15.21875 11.1875 -14.941406 11.03125 -14.703125 C 10.882812 -14.460938 10.742188 -14.21875 10.609375 -13.96875 C 10.515625 -13.800781 10.414062 -13.640625 10.3125 -13.484375 C 10.207031 -13.328125 10.097656 -13.164062 9.984375 -13 L 9.609375 -12.453125 C 9.523438 -12.335938 9.429688 -12.234375 9.328125 -12.140625 C 9.222656 -12.054688 9.125 -11.957031 9.03125 -11.84375 C 8.851562 -11.613281 8.648438 -11.441406 8.421875 -11.328125 C 8.191406 -11.210938 7.960938 -11.078125 7.734375 -10.921875 C 7.691406 -10.867188 7.640625 -10.804688 7.578125 -10.734375 C 7.523438 -10.671875 7.472656 -10.609375 7.421875 -10.546875 C 7.378906 -10.492188 7.359375 -10.445312 7.359375 -10.40625 L 7.390625 -10.265625 C 7.484375 -10.078125 7.566406 -9.882812 7.640625 -9.6875 C 7.722656 -9.5 7.820312 -9.316406 7.9375 -9.140625 C 8.070312 -8.816406 8.164062 -8.484375 8.21875 -8.140625 C 8.28125 -7.796875 8.347656 -7.457031 8.421875 -7.125 C 8.484375 -6.75 8.5625 -6.382812 8.65625 -6.03125 C 8.75 -5.6875 8.828125 -5.332031 8.890625 -4.96875 C 9.035156 -4.457031 9.140625 -3.941406 9.203125 -3.421875 C 9.242188 -2.867188 9.3125 -2.332031 9.40625 -1.8125 C 9.5 -1.289062 9.640625 -0.765625 9.828125 -0.234375 C 9.867188 -0.0976562 9.898438 0.0390625 9.921875 0.1875 C 9.941406 0.332031 9.960938 0.488281 9.984375 0.65625 C 9.984375 0.851562 9.9375 1.007812 9.84375 1.125 C 9.757812 1.238281 9.660156 1.351562 9.546875 1.46875 C 9.335938 1.582031 9.125 1.660156 8.90625 1.703125 C 8.695312 1.753906 8.46875 1.789062 8.21875 1.8125 C 7.820312 1.8125 7.566406 1.675781 7.453125 1.40625 C 7.296875 1.15625 7.160156 0.890625 7.046875 0.609375 C 6.929688 0.335938 6.863281 0.0390625 6.84375 -0.28125 C 6.84375 -0.550781 6.8125 -0.816406 6.75 -1.078125 C 6.695312 -1.335938 6.648438 -1.601562 6.609375 -1.875 C 6.554688 -2.238281 6.515625 -2.601562 6.484375 -2.96875 C 6.453125 -3.34375 6.410156 -3.710938 6.359375 -4.078125 C 6.222656 -5.328125 6.050781 -6.507812 5.84375 -7.625 C 5.757812 -8.0625 5.660156 -8.488281 5.546875 -8.90625 C 5.429688 -9.332031 5.316406 -9.765625 5.203125 -10.203125 L 4.890625 -11.046875 L 4.75 -11.046875 L 4.71875 -10.703125 C 4.738281 -10.597656 4.75 -10.5 4.75 -10.40625 C 4.75 -10.3125 4.75 -10.207031 4.75 -10.09375 C 4.75 -9.863281 4.734375 -9.617188 4.703125 -9.359375 C 4.671875 -9.097656 4.628906 -8.84375 4.578125 -8.59375 C 4.492188 -8.019531 4.398438 -7.273438 4.296875 -6.359375 C 4.191406 -5.453125 4.078125 -4.492188 3.953125 -3.484375 C 3.828125 -2.484375 3.675781 -1.539062 3.5 -0.65625 C 3.332031 0.21875 3.144531 0.929688 2.9375 1.484375 C 2.738281 2.046875 2.5 2.328125 2.21875 2.328125 Z M 4.859375 -11.328125 C 4.972656 -11.421875 5.054688 -11.492188 5.109375 -11.546875 C 5.171875 -11.609375 5.234375 -11.660156 5.296875 -11.703125 C 5.640625 -11.859375 5.957031 -12.054688 6.25 -12.296875 C 6.550781 -12.535156 6.851562 -12.769531 7.15625 -13 C 8.34375 -13.863281 9.148438 -15.03125 9.578125 -16.5 C 9.671875 -16.695312 9.71875 -16.96875 9.71875 -17.3125 C 9.71875 -17.632812 9.632812 -17.878906 9.46875 -18.046875 C 9.3125 -18.222656 9.117188 -18.3125 8.890625 -18.3125 C 8.734375 -18.3125 8.578125 -18.265625 8.421875 -18.171875 C 8.191406 -18.054688 7.96875 -17.910156 7.75 -17.734375 C 7.53125 -17.566406 7.332031 -17.394531 7.15625 -17.21875 C 6.789062 -16.851562 6.5 -16.453125 6.28125 -16.015625 C 6.0625 -15.578125 5.863281 -15.132812 5.6875 -14.6875 C 5.59375 -14.476562 5.519531 -14.265625 5.46875 -14.046875 C 5.425781 -13.828125 5.347656 -13.628906 5.234375 -13.453125 C 5.023438 -13.128906 4.921875 -12.789062 4.921875 -12.4375 C 4.921875 -12.082031 4.898438 -11.710938 4.859375 -11.328125 Z M 4.859375 -11.328125 "/></g></g></g><g fill="#000000" fill-opacity="1"><g transform="translate(146.18898, 38.45209)"><g><path d="M 1.125 2.703125 L 0.859375 2.640625 C 0.835938 2.609375 0.78125 2.59375 0.6875 2.59375 C 0.59375 2.59375 0.535156 2.609375 0.515625 2.640625 C 0.0351562 2.453125 -0.285156 2.289062 -0.453125 2.15625 C -0.628906 2.019531 -0.71875 1.859375 -0.71875 1.671875 C -0.71875 1.628906 -0.710938 1.601562 -0.703125 1.59375 C -0.691406 1.582031 -0.6875 1.550781 -0.6875 1.5 C -0.726562 1.414062 -0.75 1.328125 -0.75 1.234375 C -0.75 1.117188 -0.722656 1.007812 -0.671875 0.90625 C -0.628906 0.800781 -0.597656 0.691406 -0.578125 0.578125 L -0.375 -0.375 C -0.3125 -0.695312 -0.234375 -1.007812 -0.140625 -1.3125 C -0.046875 -1.625 0.0351562 -1.941406 0.109375 -2.265625 C 0.148438 -2.367188 0.171875 -2.492188 0.171875 -2.640625 C 0.171875 -2.796875 0.179688 -2.929688 0.203125 -3.046875 L 0.953125 -6.8125 C 1.203125 -7.789062 1.410156 -8.757812 1.578125 -9.71875 C 1.597656 -9.832031 1.609375 -9.953125 1.609375 -10.078125 C 1.609375 -10.203125 1.609375 -10.320312 1.609375 -10.4375 C 1.609375 -10.550781 1.609375 -10.671875 1.609375 -10.796875 C 1.609375 -10.921875 1.617188 -11.039062 1.640625 -11.15625 C 1.753906 -11.882812 1.878906 -12.617188 2.015625 -13.359375 C 2.148438 -14.097656 2.285156 -14.832031 2.421875 -15.5625 L 2.671875 -16.734375 L 2.671875 -17.21875 C 2.398438 -17.164062 2.132812 -17.113281 1.875 -17.0625 C 1.625 -17.019531 1.375 -16.976562 1.125 -16.9375 C 1.007812 -16.914062 0.90625 -16.90625 0.8125 -16.90625 C 0.726562 -16.90625 0.640625 -16.90625 0.546875 -16.90625 C 0.179688 -16.90625 -0.113281 -17.019531 -0.34375 -17.25 C -0.382812 -17.269531 -0.410156 -17.289062 -0.421875 -17.3125 C -0.429688 -17.332031 -0.460938 -17.367188 -0.515625 -17.421875 C -0.398438 -17.535156 -0.296875 -17.59375 -0.203125 -17.59375 C 0.046875 -17.707031 0.300781 -17.800781 0.5625 -17.875 C 0.820312 -17.957031 1.078125 -18.046875 1.328125 -18.140625 C 2.171875 -18.410156 3.003906 -18.71875 3.828125 -19.0625 C 4.648438 -19.40625 5.484375 -19.769531 6.328125 -20.15625 C 6.804688 -20.332031 7.296875 -20.421875 7.796875 -20.421875 C 7.890625 -20.421875 7.984375 -20.421875 8.078125 -20.421875 C 8.171875 -20.421875 8.257812 -20.410156 8.34375 -20.390625 L 8.71875 -19.671875 C 8.5625 -19.398438 8.3125 -19.207031 7.96875 -19.09375 C 7.65625 -18.976562 7.351562 -18.863281 7.0625 -18.75 C 6.78125 -18.632812 6.488281 -18.519531 6.1875 -18.40625 C 6.070312 -18.363281 5.957031 -18.320312 5.84375 -18.28125 C 5.738281 -18.25 5.628906 -18.210938 5.515625 -18.171875 C 5.328125 -18.097656 5.234375 -17.992188 5.234375 -17.859375 C 5.234375 -17.609375 5.226562 -17.367188 5.21875 -17.140625 C 5.207031 -16.910156 5.191406 -16.671875 5.171875 -16.421875 C 5.117188 -15.828125 5.0625 -15.226562 5 -14.625 C 4.945312 -14.019531 4.890625 -13.410156 4.828125 -12.796875 C 4.773438 -12.273438 4.710938 -11.769531 4.640625 -11.28125 C 4.578125 -10.789062 4.515625 -10.28125 4.453125 -9.75 L 4.140625 -7.125 L 4.03125 -6.53125 C 3.914062 -5.875 3.789062 -5.222656 3.65625 -4.578125 C 3.519531 -3.941406 3.382812 -3.296875 3.25 -2.640625 C 3.207031 -2.390625 3.191406 -2.148438 3.203125 -1.921875 C 3.210938 -1.691406 3.191406 -1.453125 3.140625 -1.203125 L 2.53125 1.78125 L 1.84375 2.359375 C 1.726562 2.453125 1.613281 2.53125 1.5 2.59375 C 1.382812 2.664062 1.257812 2.703125 1.125 2.703125 Z M 1.125 2.703125 "/></g></g></g></svg>